<svg width="55" height="54" viewBox="0 0 55 54" fill="none" xmlns="http://www.w3.org/2000/svg">
<path d="M22.7864 3.77256C22.6433 3.77479 22.507 3.83369 22.4074 3.93631C22.3077 4.03893 22.2528 4.1769 22.2548 4.31994V9.71994H16.8548C16.7615 9.72 16.6698 9.74422 16.5887 9.79024C16.5076 9.83627 16.4397 9.90252 16.3918 9.98256L13.3089 15.1199H13.0748C11.8882 15.1199 10.9148 16.0934 10.9148 17.2799C10.9148 18.4665 11.8882 19.4399 13.0748 19.4399V46.9799H9.8348C9.76324 46.9789 9.6922 46.9921 9.6258 47.0188C9.55939 47.0455 9.49896 47.0851 9.448 47.1354C9.39704 47.1856 9.35657 47.2455 9.32895 47.3115C9.30133 47.3775 9.28711 47.4484 9.28711 47.5199C9.28711 47.5915 9.30133 47.6624 9.32895 47.7284C9.35657 47.7944 9.39704 47.8543 9.448 47.9045C9.49896 47.9548 9.55939 47.9944 9.6258 48.021C9.6922 48.0477 9.76324 48.061 9.8348 48.0599H13.6148H25.4948H41.6948H45.4748C45.5464 48.061 45.6174 48.0477 45.6838 48.021C45.7502 47.9944 45.8106 47.9548 45.8616 47.9045C45.9126 47.8543 45.953 47.7944 45.9806 47.7284C46.0083 47.6624 46.0225 47.5915 46.0225 47.5199C46.0225 47.4484 46.0083 47.3775 45.9806 47.3115C45.953 47.2455 45.9126 47.1856 45.8616 47.1354C45.8106 47.0851 45.7502 47.0455 45.6838 47.0188C45.6174 46.9921 45.5464 46.9789 45.4748 46.9799H42.2348V19.4399C43.4214 19.4399 44.3948 18.4665 44.3948 17.2799C44.3948 16.0934 43.4214 15.1199 42.2348 15.1199H42.0007L38.9621 10.0564C38.9234 9.96192 38.8586 9.88037 38.7754 9.82119C38.7628 9.81184 38.7498 9.80304 38.7364 9.79482C38.7347 9.79376 38.7329 9.7927 38.7311 9.79166C38.7276 9.78986 38.7241 9.78811 38.7206 9.78639C38.7109 9.78081 38.7011 9.77553 38.6911 9.77057C38.591 9.72056 38.4778 9.70287 38.3673 9.71994H28.7348C28.6632 9.71893 28.5922 9.73215 28.5258 9.75883C28.4594 9.78552 28.399 9.82513 28.348 9.87537C28.297 9.92562 28.2566 9.98549 28.229 10.0515C28.2013 10.1175 28.1871 10.1884 28.1871 10.2599C28.1871 10.3315 28.2013 10.4024 28.229 10.4684C28.2566 10.5344 28.297 10.5943 28.348 10.6445C28.399 10.6948 28.4594 10.7344 28.5258 10.761C28.5922 10.7877 28.6632 10.801 28.7348 10.7999H38.1489L40.7414 15.1199H14.5682L17.1607 10.7999H22.2548V12.4199C22.2538 12.4915 22.267 12.5625 22.2937 12.6289C22.3204 12.6953 22.36 12.7558 22.4102 12.8067C22.4605 12.8577 22.5203 12.8982 22.5864 12.9258C22.6524 12.9534 22.7232 12.9676 22.7948 12.9676C22.8664 12.9676 22.9372 12.9534 23.0032 12.9258C23.0693 12.8982 23.1291 12.8577 23.1794 12.8067C23.2296 12.7558 23.2692 12.6953 23.2959 12.6289C23.3226 12.5625 23.3358 12.4915 23.3348 12.4199V10.3506C23.3444 10.2923 23.3444 10.2328 23.3348 10.1745V4.31994C23.3358 4.24769 23.3223 4.17598 23.295 4.10906C23.2678 4.04213 23.2274 3.98134 23.1763 3.9303C23.1252 3.87926 23.0643 3.839 22.9973 3.8119C22.9303 3.78481 22.8586 3.77143 22.7864 3.77256ZM26.5664 7.01256C26.4233 7.01479 26.287 7.07369 26.1874 7.17631C26.0877 7.27893 26.0328 7.4169 26.0348 7.55994V9.71994H24.9548C24.8832 9.71893 24.8122 9.73215 24.7458 9.75883C24.6794 9.78552 24.619 9.82513 24.568 9.87537C24.517 9.92562 24.4766 9.98549 24.449 10.0515C24.4213 10.1175 24.4071 10.1884 24.4071 10.2599C24.4071 10.3315 24.4213 10.4024 24.449 10.4684C24.4766 10.5344 24.517 10.5943 24.568 10.6445C24.619 10.6948 24.6794 10.7344 24.7458 10.761C24.8122 10.7877 24.8832 10.801 24.9548 10.7999H26.0348V12.4199C26.0338 12.4915 26.047 12.5625 26.0737 12.6289C26.1004 12.6953 26.14 12.7558 26.1902 12.8067C26.2405 12.8577 26.3004 12.8982 26.3664 12.9258C26.4324 12.9534 26.5032 12.9676 26.5748 12.9676C26.6464 12.9676 26.7172 12.9534 26.7832 12.9258C26.8493 12.8982 26.9091 12.8577 26.9594 12.8067C27.0096 12.7558 27.0492 12.6953 27.0759 12.6289C27.1026 12.5625 27.1158 12.4915 27.1148 12.4199V10.3506C27.1244 10.2923 27.1244 10.2328 27.1148 10.1745V7.55994C27.1158 7.48769 27.1023 7.41598 27.075 7.34906C27.0478 7.28213 27.0074 7.22134 26.9563 7.1703C26.9052 7.11926 26.8443 7.079 26.7773 7.0519C26.7103 7.02481 26.6386 7.01143 26.5664 7.01256ZM13.0748 16.1999H13.5315C13.5836 16.2076 13.6365 16.2076 13.6886 16.1999H41.6157C41.6709 16.2086 41.7271 16.2086 41.7823 16.1999H42.2348C42.8378 16.1999 43.3148 16.6769 43.3148 17.2799C43.3148 17.8829 42.8378 18.3599 42.2348 18.3599H41.6948H13.6148H13.0748C12.4718 18.3599 11.9948 17.8829 11.9948 17.2799C11.9948 16.6769 12.4718 16.1999 13.0748 16.1999ZM14.1548 19.4399H41.1548V21.0599H31.1648C31.129 21.0594 31.0935 21.066 31.0603 21.0794C31.0271 21.0927 30.9969 21.1125 30.9714 21.1377C30.9459 21.1628 30.9257 21.1927 30.9119 21.2257C30.8981 21.2587 30.891 21.2942 30.891 21.3299C30.891 21.3657 30.8981 21.4011 30.9119 21.4342C30.9257 21.4672 30.9459 21.4971 30.9714 21.5222C30.9969 21.5473 31.0271 21.5672 31.0603 21.5805C31.0935 21.5938 31.129 21.6004 31.1648 21.5999H41.1548V43.1999H39.8048C39.769 43.1994 39.7335 43.206 39.7003 43.2194C39.6671 43.2327 39.6369 43.2525 39.6114 43.2777C39.5859 43.3028 39.5657 43.3327 39.5519 43.3657C39.5381 43.3987 39.531 43.4342 39.531 43.4699C39.531 43.5057 39.5381 43.5411 39.5519 43.5742C39.5657 43.6072 39.5859 43.6371 39.6114 43.6622C39.6369 43.6873 39.6671 43.7072 39.7003 43.7205C39.7335 43.7338 39.769 43.7404 39.8048 43.7399H41.1548V46.9799H30.3548V43.7399H36.5648C36.6006 43.7404 36.6361 43.7338 36.6693 43.7205C36.7025 43.7072 36.7327 43.6873 36.7582 43.6622C36.7837 43.6371 36.8039 43.6072 36.8177 43.5742C36.8315 43.5411 36.8386 43.5057 36.8386 43.4699C36.8386 43.4342 36.8315 43.3987 36.8177 43.3657C36.8039 43.3327 36.7837 43.3028 36.7582 43.2777C36.7327 43.2525 36.7025 43.2327 36.6693 43.2194C36.6361 43.206 36.6006 43.1994 36.5648 43.1999H30.3548C30.3548 41.7152 29.1395 40.4999 27.6548 40.4999C26.1701 40.4999 24.9548 41.7152 24.9548 43.1999H20.9048C20.869 43.1994 20.8335 43.206 20.8003 43.2194C20.7671 43.2327 20.7369 43.2525 20.7114 43.2777C20.6859 43.3028 20.6657 43.3327 20.6519 43.3657C20.6381 43.3987 20.631 43.4342 20.631 43.4699C20.631 43.5057 20.6381 43.5411 20.6519 43.5742C20.6657 43.6072 20.6859 43.6371 20.7114 43.6622C20.7369 43.6873 20.7671 43.7072 20.8003 43.7205C20.8335 43.7338 20.869 43.7404 20.9048 43.7399H24.9548V46.9799H14.1548V43.7399H15.5048C15.5406 43.7404 15.5761 43.7338 15.6093 43.7205C15.6425 43.7072 15.6727 43.6873 15.6982 43.6622C15.7237 43.6371 15.7439 43.6072 15.7577 43.5742C15.7715 43.5411 15.7786 43.5057 15.7786 43.4699C15.7786 43.4342 15.7715 43.3987 15.7577 43.3657C15.7439 43.3327 15.7237 43.3028 15.6982 43.2777C15.6727 43.2525 15.6425 43.2327 15.6093 43.2194C15.5761 43.206 15.5406 43.1994 15.5048 43.1999H14.1548V21.5999H22.5248C22.5606 21.6004 22.5961 21.5938 22.6293 21.5805C22.6625 21.5672 22.6927 21.5473 22.7182 21.5222C22.7437 21.4971 22.7639 21.4672 22.7777 21.4342C22.7915 21.4011 22.7986 21.3657 22.7986 21.3299C22.7986 21.2942 22.7915 21.2587 22.7777 21.2257C22.7639 21.1927 22.7437 21.1628 22.7182 21.1377C22.6927 21.1125 22.6625 21.0927 22.6293 21.0794C22.5961 21.066 22.5606 21.0594 22.5248 21.0599H14.1548V19.4399ZM24.1448 21.0599C24.109 21.0594 24.0735 21.066 24.0403 21.0794C24.0071 21.0927 23.9769 21.1125 23.9514 21.1377C23.9259 21.1628 23.9057 21.1927 23.8919 21.2257C23.8781 21.2587 23.871 21.2942 23.871 21.3299C23.871 21.3657 23.8781 21.4011 23.8919 21.4342C23.9057 21.4672 23.9259 21.4971 23.9514 21.5222C23.9769 21.5473 24.0071 21.5672 24.0403 21.5805C24.0735 21.5938 24.109 21.6004 24.1448 21.5999H24.6848C24.7206 21.6004 24.7561 21.5938 24.7893 21.5805C24.8225 21.5672 24.8527 21.5473 24.8782 21.5222C24.9037 21.4971 24.9239 21.4672 24.9377 21.4342C24.9515 21.4011 24.9586 21.3657 24.9586 21.3299C24.9586 21.2942 24.9515 21.2587 24.9377 21.2257C24.9239 21.1927 24.9037 21.1628 24.8782 21.1377C24.8527 21.1125 24.8225 21.0927 24.7893 21.0794C24.7561 21.066 24.7206 21.0594 24.6848 21.0599H24.1448ZM26.3048 21.0599C26.269 21.0594 26.2335 21.066 26.2003 21.0794C26.1671 21.0927 26.1369 21.1125 26.1114 21.1377C26.0859 21.1628 26.0657 21.1927 26.0519 21.2257C26.0381 21.2587 26.031 21.2942 26.031 21.3299C26.031 21.3657 26.0381 21.4011 26.0519 21.4342C26.0657 21.4672 26.0859 21.4971 26.1114 21.5222C26.1369 21.5473 26.1671 21.5672 26.2003 21.5805C26.2335 21.5938 26.269 21.6004 26.3048 21.5999H29.5448C29.5806 21.6004 29.6161 21.5938 29.6493 21.5805C29.6825 21.5672 29.7127 21.5473 29.7382 21.5222C29.7637 21.4971 29.7839 21.4672 29.7977 21.4342C29.8115 21.4011 29.8186 21.3657 29.8186 21.3299C29.8186 21.2942 29.8115 21.2587 29.7977 21.2257C29.7839 21.1927 29.7637 21.1628 29.7382 21.1377C29.7127 21.1125 29.6825 21.0927 29.6493 21.0794C29.6161 21.066 29.5806 21.0594 29.5448 21.0599H26.3048ZM18.2048 24.8399C18.1332 24.8399 18.0645 24.8684 18.0139 24.919C17.9633 24.9697 17.9348 25.0383 17.9348 25.1099V28.3499C17.9348 28.4215 17.9633 28.4902 18.0139 28.5409C18.0645 28.5915 18.1332 28.6199 18.2048 28.6199H20.9048C20.9764 28.6199 21.0451 28.5915 21.0957 28.5409C21.1463 28.4902 21.1748 28.4215 21.1748 28.3499V25.1099C21.1748 25.0383 21.1463 24.9697 21.0957 24.919C21.0451 24.8684 20.9764 24.8399 20.9048 24.8399H18.2048ZM23.6048 24.8399C23.5332 24.8399 23.4645 24.8684 23.4139 24.919C23.3633 24.9697 23.3348 25.0383 23.3348 25.1099V28.3499C23.3348 28.4215 23.3633 28.4902 23.4139 28.5409C23.4645 28.5915 23.5332 28.6199 23.6048 28.6199H26.3048C26.3764 28.6199 26.4451 28.5915 26.4957 28.5409C26.5463 28.4902 26.5748 28.4215 26.5748 28.3499V25.1099C26.5748 25.0383 26.5463 24.9697 26.4957 24.919C26.4451 24.8684 26.3764 24.8399 26.3048 24.8399H23.6048ZM29.0048 24.8399C28.9332 24.8399 28.8645 24.8684 28.8139 24.919C28.7633 24.9697 28.7348 25.0383 28.7348 25.1099V28.3499C28.7348 28.4215 28.7633 28.4902 28.8139 28.5409C28.8645 28.5915 28.9332 28.6199 29.0048 28.6199H31.7048C31.7764 28.6199 31.8451 28.5915 31.8957 28.5409C31.9463 28.4902 31.9748 28.4215 31.9748 28.3499V25.1099C31.9748 25.0383 31.9463 24.9697 31.8957 24.919C31.8451 24.8684 31.7764 24.8399 31.7048 24.8399H29.0048ZM34.4048 24.8399C34.3332 24.8399 34.2645 24.8684 34.2139 24.919C34.1633 24.9697 34.1348 25.0383 34.1348 25.1099V28.3499C34.1348 28.4215 34.1633 28.4902 34.2139 28.5409C34.2645 28.5915 34.3332 28.6199 34.4048 28.6199H37.1048C37.1764 28.6199 37.2451 28.5915 37.2957 28.5409C37.3463 28.4902 37.3748 28.4215 37.3748 28.3499V25.1099C37.3748 25.0383 37.3463 24.9697 37.2957 24.919C37.2451 24.8684 37.1764 24.8399 37.1048 24.8399H34.4048ZM18.4748 25.3799H20.6348V28.0799H18.4748V25.3799ZM23.8748 25.3799H26.0348V28.0799H23.8748V25.3799ZM29.2748 25.3799H31.4348V28.0799H29.2748V25.3799ZM34.6748 25.3799H36.8348V28.0799H34.6748V25.3799ZM18.2048 30.2399C18.1332 30.2399 18.0645 30.2684 18.0139 30.319C17.9633 30.3697 17.9348 30.4383 17.9348 30.5099V33.7499C17.9348 33.8215 17.9633 33.8902 18.0139 33.9409C18.0645 33.9915 18.1332 34.0199 18.2048 34.0199H20.9048C20.9764 34.0199 21.0451 33.9915 21.0957 33.9409C21.1463 33.8902 21.1748 33.8215 21.1748 33.7499V30.5099C21.1748 30.4383 21.1463 30.3697 21.0957 30.319C21.0451 30.2684 20.9764 30.2399 20.9048 30.2399H18.2048ZM23.6048 30.2399C23.5332 30.2399 23.4645 30.2684 23.4139 30.319C23.3633 30.3697 23.3348 30.4383 23.3348 30.5099V33.7499C23.3348 33.8215 23.3633 33.8902 23.4139 33.9409C23.4645 33.9915 23.5332 34.0199 23.6048 34.0199H26.3048C26.3764 34.0199 26.4451 33.9915 26.4957 33.9409C26.5463 33.8902 26.5748 33.8215 26.5748 33.7499V30.5099C26.5748 30.4383 26.5463 30.3697 26.4957 30.319C26.4451 30.2684 26.3764 30.2399 26.3048 30.2399H23.6048ZM29.0048 30.2399C28.9332 30.2399 28.8645 30.2684 28.8139 30.319C28.7633 30.3697 28.7348 30.4383 28.7348 30.5099V33.7499C28.7348 33.8215 28.7633 33.8902 28.8139 33.9409C28.8645 33.9915 28.9332 34.0199 29.0048 34.0199H31.7048C31.7764 34.0199 31.8451 33.9915 31.8957 33.9409C31.9463 33.8902 31.9748 33.8215 31.9748 33.7499V30.5099C31.9748 30.4383 31.9463 30.3697 31.8957 30.319C31.8451 30.2684 31.7764 30.2399 31.7048 30.2399H29.0048ZM34.4048 30.2399C34.3332 30.2399 34.2645 30.2684 34.2139 30.319C34.1633 30.3697 34.1348 30.4383 34.1348 30.5099V33.7499C34.1348 33.8215 34.1633 33.8902 34.2139 33.9409C34.2645 33.9915 34.3332 34.0199 34.4048 34.0199H37.1048C37.1764 34.0199 37.2451 33.9915 37.2957 33.9409C37.3463 33.8902 37.3748 33.8215 37.3748 33.7499V30.5099C37.3748 30.4383 37.3463 30.3697 37.2957 30.319C37.2451 30.2684 37.1764 30.2399 37.1048 30.2399H34.4048ZM18.4748 30.7799H20.6348V33.4799H18.4748V30.7799ZM23.8748 30.7799H26.0348V33.4799H23.8748V30.7799ZM29.2748 30.7799H31.4348V33.4799H29.2748V30.7799ZM34.6748 30.7799H36.8348V33.4799H34.6748V30.7799ZM18.2048 35.6399C18.1332 35.6399 18.0645 35.6684 18.0139 35.719C17.9633 35.7697 17.9348 35.8383 17.9348 35.9099V39.1499C17.9348 39.2215 17.9633 39.2902 18.0139 39.3409C18.0645 39.3915 18.1332 39.4199 18.2048 39.4199H20.9048C20.9764 39.4199 21.0451 39.3915 21.0957 39.3409C21.1463 39.2902 21.1748 39.2215 21.1748 39.1499V35.9099C21.1748 35.8383 21.1463 35.7697 21.0957 35.719C21.0451 35.6684 20.9764 35.6399 20.9048 35.6399H18.2048ZM23.6048 35.6399C23.5332 35.6399 23.4645 35.6684 23.4139 35.719C23.3633 35.7697 23.3348 35.8383 23.3348 35.9099V39.1499C23.3348 39.2215 23.3633 39.2902 23.4139 39.3409C23.4645 39.3915 23.5332 39.4199 23.6048 39.4199H26.3048C26.3764 39.4199 26.4451 39.3915 26.4957 39.3409C26.5463 39.2902 26.5748 39.2215 26.5748 39.1499V35.9099C26.5748 35.8383 26.5463 35.7697 26.4957 35.719C26.4451 35.6684 26.3764 35.6399 26.3048 35.6399H23.6048ZM29.0048 35.6399C28.9332 35.6399 28.8645 35.6684 28.8139 35.719C28.7633 35.7697 28.7348 35.8383 28.7348 35.9099V39.1499C28.7348 39.2215 28.7633 39.2902 28.8139 39.3409C28.8645 39.3915 28.9332 39.4199 29.0048 39.4199H31.7048C31.7764 39.4199 31.8451 39.3915 31.8957 39.3409C31.9463 39.2902 31.9748 39.2215 31.9748 39.1499V35.9099C31.9748 35.8383 31.9463 35.7697 31.8957 35.719C31.8451 35.6684 31.7764 35.6399 31.7048 35.6399H29.0048ZM34.4048 35.6399C34.3332 35.6399 34.2645 35.6684 34.2139 35.719C34.1633 35.7697 34.1348 35.8383 34.1348 35.9099V39.1499C34.1348 39.2215 34.1633 39.2902 34.2139 39.3409C34.2645 39.3915 34.3332 39.4199 34.4048 39.4199H37.1048C37.1764 39.4199 37.2451 39.3915 37.2957 39.3409C37.3463 39.2902 37.3748 39.2215 37.3748 39.1499V35.9099C37.3748 35.8383 37.3463 35.7697 37.2957 35.719C37.2451 35.6684 37.1764 35.6399 37.1048 35.6399H34.4048ZM18.4748 36.1799H20.6348V38.8799H18.4748V36.1799ZM23.8748 36.1799H26.0348V38.8799H23.8748V36.1799ZM29.2748 36.1799H31.4348V38.8799H29.2748V36.1799ZM34.6748 36.1799H36.8348V38.8799H34.6748V36.1799ZM27.6548 41.5799C28.5558 41.5799 29.2748 42.299 29.2748 43.1999V46.9799H26.0348V43.1999C26.0348 42.299 26.7538 41.5799 27.6548 41.5799ZM17.1248 43.1999C17.089 43.1994 17.0535 43.206 17.0203 43.2194C16.9871 43.2327 16.9569 43.2525 16.9314 43.2777C16.9059 43.3028 16.8857 43.3327 16.8719 43.3657C16.8581 43.3987 16.851 43.4342 16.851 43.4699C16.851 43.5057 16.8581 43.5411 16.8719 43.5742C16.8857 43.6072 16.9059 43.6371 16.9314 43.6622C16.9569 43.6873 16.9871 43.7072 17.0203 43.7205C17.0535 43.7338 17.089 43.7404 17.1248 43.7399H19.2848C19.3206 43.7404 19.3561 43.7338 19.3893 43.7205C19.4225 43.7072 19.4527 43.6873 19.4782 43.6622C19.5037 43.6371 19.5239 43.6072 19.5377 43.5742C19.5515 43.5411 19.5586 43.5057 19.5586 43.4699C19.5586 43.4342 19.5515 43.3987 19.5377 43.3657C19.5239 43.3327 19.5037 43.3028 19.4782 43.2777C19.4527 43.2525 19.4225 43.2327 19.3893 43.2194C19.3561 43.206 19.3206 43.1994 19.2848 43.1999H17.1248ZM37.6448 43.1999C37.609 43.1994 37.5735 43.206 37.5403 43.2194C37.5071 43.2327 37.4769 43.2525 37.4514 43.2777C37.4259 43.3028 37.4057 43.3327 37.3919 43.3657C37.3781 43.3987 37.371 43.4342 37.371 43.4699C37.371 43.5057 37.3781 43.5411 37.3919 43.5742C37.4057 43.6072 37.4259 43.6371 37.4514 43.6622C37.4769 43.6873 37.5071 43.7072 37.5403 43.7205C37.5735 43.7338 37.609 43.7404 37.6448 43.7399H38.7248C38.7606 43.7404 38.7961 43.7338 38.8293 43.7205C38.8625 43.7072 38.8927 43.6873 38.9182 43.6622C38.9437 43.6371 38.9639 43.6072 38.9777 43.5742C38.9915 43.5411 38.9986 43.5057 38.9986 43.4699C38.9986 43.4342 38.9915 43.3987 38.9777 43.3657C38.9639 43.3327 38.9437 43.3028 38.9182 43.2777C38.8927 43.2525 38.8625 43.2327 38.8293 43.2194C38.7961 43.206 38.7606 43.1994 38.7248 43.1999H37.6448Z" fill="#72558F"/>
</svg>
